<?xml version="1.0" encoding="UTF-8" standalone="no"?>
<!-- Created with Inkscape (http://www.inkscape.org/) -->

<svg
   width="256mm"
   height="256mm"
   viewBox="0 0 256 256"
   version="1.1"
   id="svg1"
   xml:space="preserve"
   sodipodi:docname="phraims2.svg"
   inkscape:version="1.4.2 (ebf0e940, 2025-05-08)"
   inkscape:export-filename="phraims2.png"
   inkscape:export-xdpi="96"
   inkscape:export-ydpi="96"
   xmlns:inkscape="http://www.inkscape.org/namespaces/inkscape"
   xmlns:sodipodi="http://sodipodi.sourceforge.net/DTD/sodipodi-0.dtd"
   xmlns="http://www.w3.org/2000/svg"
   xmlns:svg="http://www.w3.org/2000/svg"><sodipodi:namedview
     id="namedview1"
     pagecolor="#ffffff"
     bordercolor="#000000"
     borderopacity="0.25"
     inkscape:showpageshadow="2"
     inkscape:pageopacity="0.0"
     inkscape:pagecheckerboard="0"
     inkscape:deskcolor="#d1d1d1"
     inkscape:document-units="mm"
     inkscape:zoom="0.61704822"
     inkscape:cx="309.53821"
     inkscape:cy="495.90938"
     inkscape:window-width="1712"
     inkscape:window-height="1051"
     inkscape:window-x="0"
     inkscape:window-y="38"
     inkscape:window-maximized="0"
     inkscape:current-layer="g1" /><defs
     id="defs1" /><g
     inkscape:label="Layer 1"
     inkscape:groupmode="layer"
     id="layer1"><g
       id="g1"
       transform="matrix(0.94488194,0,0,0.94488194,7.0551114,7.0551114)"><path
         id="path8"
         style="display:none;opacity:1;fill:#237aa9"
         inkscape:label="path8 background"
         d="M -7.4666592,-7.4666592 V 127.99994 263.46653 H 127.99994 263.46653 V 127.99994 -7.4666592 H 127.99994 Z M 187.79622,21.938991 c 9.12896,-0.03485 18.24392,0.110704 27.33997,0.887633 6.881,0.589554 13.75396,1.099801 20.59933,1.980357 1.21155,0.261394 2.63488,0.183601 3.61616,1.042408 0.71037,1.035582 0.53947,2.437637 0.63277,3.596473 0.0285,2.996849 0.10352,6.045231 -0.0777,8.990088 0.005,1.39494 -1.46408,2.001016 -2.59618,2.331473 -1.69203,0.273329 -3.12428,1.481261 -3.77148,3.055033 -1.0139,2.610805 -1.05535,5.463277 -1.34321,8.216759 -0.46483,7.044083 -1.10393,14.07406 -2.59508,20.996925 -1.09584,5.263273 -2.77657,10.521458 -5.94873,14.926237 -2.21206,3.196056 -5.20425,5.780565 -8.53068,7.763372 -0.55783,0.402312 -1.61719,0.896958 -1.23274,1.736983 0.59647,0.69208 1.63854,0.497041 2.45617,0.67051 7.17738,0.629613 14.33641,1.246821 21.48258,2.235218 0.81667,0.0284 1.78743,0.36754 1.86113,1.31969 0.39612,2.41557 0.25092,4.85886 0.29862,7.32311 -0.0582,1.65624 0.13811,3.3689 -0.28385,4.98289 -0.53462,1.1886 -1.96416,1.10637 -3.03534,1.38258 -1.99563,0.35262 -3.4991,2.05685 -3.95142,3.9804 -0.85582,3.51554 -0.9769,7.18567 -1.46626,10.7402 -0.8444,6.46362 -1.7975,12.95958 -3.76602,19.19158 -1.23066,3.37208 -2.78163,6.66981 -4.89593,9.58294 -1.77747,2.30435 -3.78488,4.20384 -6.20413,5.81419 -0.92,0.73197 -2.30008,0.97165 -2.87838,2.07169 -0.17316,0.84272 0.88548,0.97613 1.49361,1.05553 3.86472,0.44719 7.74105,0.58397 11.59501,1.04733 3.92139,0.497 7.88055,0.71058 11.77659,1.39134 1.02568,0.0478 1.39578,1.09877 1.41868,1.97106 0.23861,3.08654 0.18861,6.24211 0.17501,9.36964 -0.10126,0.98893 0.0895,2.24994 -0.73832,2.96972 -1.43622,0.68424 -3.23662,0.48174 -4.5038,1.56634 -1.63419,1.49889 -2.11127,3.8126 -2.45781,5.91045 -1.05289,7.10288 -1.67032,14.28185 -3.25903,21.30046 -1.04883,4.75371 -2.78051,9.57376 -5.73543,13.55568 -2.68558,3.95259 -6.58658,7.05817 -11.076,8.71171 -4.28502,1.60906 -8.81985,2.31403 -13.36919,2.56665 -7.87499,0.27306 -15.82772,0.25504 -23.73201,0.11485 -4.01794,-0.0166 -7.99713,-0.47255 -11.93684,-1.3372 -5.13183,-1.09601 -10.21762,-3.25866 -13.85211,-7.1552 -3.18046,-3.40103 -5.45822,-7.57377 -7.07207,-11.91934 -1.84385,-5.20889 -2.83785,-10.86425 -3.73703,-16.375 -0.55455,-2.99372 -0.71834,-6.07324 -1.60354,-9.00704 -0.48628,-1.66438 -1.69479,-3.35179 -3.54999,-3.53795 -2.79771,-0.22209 -5.61076,-0.0415 -8.41419,-0.0306 -1.44171,0.11671 -3.13746,-0.16691 -4.30636,0.88053 -1.59359,1.4133 -1.81958,3.68662 -2.21607,5.65339 -1.07829,7.04045 -2.13688,14.1416 -4.40262,20.94224 -1.93052,5.93464 -5.09389,11.65534 -10.00679,15.62847 -3.63772,2.99319 -8.311877,4.4177 -12.831031,5.19399 -5.281302,0.97568 -10.638295,0.99849 -15.980678,1.12718 -6.13811,0.0867 -12.303082,0.21932 -18.406765,-0.13509 -2.852425,-0.0929 -5.656726,-0.64753 -8.422397,-1.31969 -4.471753,-1.0469 -8.877129,-2.88409 -12.241461,-6.08928 -3.709587,-3.28207 -6.213104,-7.71976 -7.71579,-12.39952 -2.670314,-8.24113 -3.454335,-16.9204 -4.511452,-25.47338 -0.309579,-2.39327 -0.782591,-5.04897 -2.729622,-6.69252 -1.409868,-1.26395 -3.614916,-0.92802 -4.913976,-2.36374 -0.01989,-3.58843 -0.127646,-7.17706 -0.05907,-10.76535 0.11999,-0.83651 -0.121945,-2.20058 0.847161,-2.67056 1.788996,-0.54805 3.698839,-0.57035 5.547297,-0.81599 5.118415,-0.61646 10.222577,-1.12792 15.361577,-1.51876 1.348882,-0.18412 2.777751,-0.13134 4.050954,-0.64919 0.608129,-0.47429 0.01028,-1.24222 -0.501516,-1.5204 -1.676263,-0.93935 -3.372469,-1.88246 -4.825377,-3.16004 -2.878217,-2.41228 -5.154959,-5.72124 -6.749402,-9.10877 -2.778101,-5.85039 -4.030173,-12.32075 -4.869677,-18.66709 -0.67755,-4.73071 -0.935844,-9.5417 -1.633617,-14.28636 -0.24992,-2.28548 -1.672519,-4.64847 -4.012123,-5.24212 -1.140554,-0.25384 -2.416175,-0.4602 -3.156211,-1.47775 -0.02688,-2.21474 -0.05939,-4.4296 -0.08258,-6.64439 0.01612,-1.94153 -0.122067,-3.87194 0.185403,-5.71739 0.04418,-0.8581 0.917517,-1.20847 1.658774,-1.24367 7.469977,-1.029578 14.965514,-1.660499 22.470845,-2.309048 0.750601,-0.177801 1.908858,7.14e-4 2.243967,-0.867397 -0.01754,-0.646862 -0.753248,-1.030709 -1.215231,-1.419776 C 39.199141,94.207082 36.810606,92.635386 34.85315,90.673952 30.800623,86.842965 28.363879,81.641857 26.910939,76.327985 25.212917,70.329882 24.397452,64.029484 23.894737,57.812385 23.473315,53.562296 23.548516,49.241489 22.611688,45.057376 22.2604,43.05815 20.743014,41.30258 18.753793,40.810628 c -1.101425,-0.07871 -1.937887,-0.844424 -2.640476,-1.623225 0.02195,-3.663911 -0.05433,-7.329806 0.06618,-10.992322 0.117775,-0.921461 -0.07154,-2.397227 1.0528,-2.819862 2.340654,-0.609197 4.790698,-0.589178 7.173804,-0.94834 6.902903,-0.702386 13.896652,-1.109732 20.845431,-1.570175 6.706556,-0.463245 13.407787,-0.637844 20.137732,-0.662854 8.169685,-0.013 16.331903,-0.07849 24.457765,0.627305 5.269092,0.469766 10.667831,0.895777 15.738941,2.589066 3.32866,1.081082 6.2567,3.158175 8.58811,5.746372 1.37327,1.297867 2.41547,3.174057 4.34519,3.708589 2.15464,0.337115 4.35199,0.210385 6.52626,0.259235 3.84799,-0.05535 7.70672,0.04386 11.5458,-0.245015 1.41457,-0.0274 2.38933,-1.149987 3.29348,-2.089739 1.83522,-2.051699 3.62708,-4.248908 6.10569,-5.56097 4.92758,-2.801775 10.70125,-3.641834 16.18741,-4.281202 7.50243,-0.773242 15.00139,-0.922719 22.53702,-0.998109 1.02722,-0.0034 2.05407,-0.007 3.08129,-0.01039 z m -59.65081,25.106945 c -2.54647,-0.0029 -5.087,0.07996 -5.68347,0.251032 -1.25521,0.35999 -2.31257,1.457148 -2.7865,2.892054 -0.22055,0.667726 -0.76022,3.714247 -1.19938,6.770185 -1.45035,10.092294 -2.80627,16.420793 -4.51418,21.068571 -2.94173,8.005391 -7.94679,14.539917 -13.54475,17.683204 -2.338758,1.313226 -2.309576,1.664898 0.16079,1.956293 3.32959,0.392744 7.55987,1.855788 10.21025,3.530845 1.84733,1.16753 2.87221,2.12551 4.68701,4.38129 1.62423,2.0189 2.35637,2.57875 3.75015,2.86963 0.53318,0.11127 4.7201,0.17747 9.30401,0.14657 6.44242,-0.0434 8.48426,-0.13796 8.99556,-0.4162 0.3638,-0.19797 1.85195,-1.56568 3.30716,-3.03917 4.0493,-4.1002 7.78825,-5.916572 14.61614,-7.101067 2.0748,-0.359934 3.24372,-0.679437 3.24372,-0.886539 0,-0.178075 -0.76554,-0.681817 -1.70089,-1.119522 -5.25146,-2.457456 -9.20788,-6.571691 -12.38694,-12.880251 -3.22106,-6.391922 -5.12787,-13.596211 -6.68651,-25.267191 -1.09918,-8.230577 -1.75309,-9.936891 -4.05259,-10.575577 -0.62094,-0.172467 -3.17311,-0.261257 -5.71958,-0.264157 z m -2.84064,73.580574 c -2.79072,0.0674 -4.01755,0.42372 -4.78928,1.23273 -1.02222,1.07158 -1.17784,1.68333 -2.19256,8.62147 -1.6834,11.5102 -3.30698,17.42791 -6.35563,23.16652 -3.10361,5.84208 -6.72009,9.81205 -10.97482,12.04785 -1.023902,0.53805 -1.815958,1.11449 -1.760498,1.28086 0.05546,0.16638 1.165718,0.44526 2.467648,0.61965 6.76494,0.90616 10.25739,2.565 13.43865,6.38407 1.49496,1.7947 2.47204,2.5574 3.82399,2.98448 0.3867,0.1222 4.57826,0.1982 9.3144,0.169 7.85167,-0.0484 8.6765,-0.0958 9.35105,-0.53816 0.40689,-0.26681 1.83013,-1.59298 3.16277,-2.94729 1.84919,-1.87926 2.87719,-2.68935 4.34137,-3.42092 2.34984,-1.17409 5.7289,-2.14961 9.04368,-2.61094 1.37235,-0.19099 2.54097,-0.48532 2.59727,-0.65411 0.0563,-0.16879 -0.60665,-0.66504 -1.47337,-1.10256 -2.18408,-1.10252 -5.25284,-3.63522 -6.99114,-5.77044 -5.59257,-6.86959 -8.37772,-14.56277 -10.51487,-29.04578 -1.48299,-10.04994 -1.60631,-10.19052 -9.13556,-10.39346 -1.3188,-0.0356 -2.42286,-0.0455 -3.3531,-0.023 z" /><g
         id="g190"
         inkscape:label="g190 message"
         style="display:inline"
         transform="translate(6.1603817,-8.4005205)"><path
           id="path156"
           style="display:inline;fill:#1f5361;fill-opacity:1"
           inkscape:label="path156 message background"
           d="m 66.015625,172.8125 c -6.946682,0.1128 -13.929441,0.36803 -20.782222,1.58329 -3.695165,0.71651 -7.63299,1.82051 -10.217778,4.74093 -2.49263,2.90544 -3.23845,6.86987 -3.339602,10.59424 -0.141966,6.24678 0.524762,12.49014 1.512185,18.65128 0.674538,3.78425 1.349152,7.63299 2.926947,11.16417 1.70173,3.67682 4.378551,7.02649 8.043048,8.88328 3.373537,1.75423 7.169121,2.45728 10.898438,2.99414 4.508604,0.35511 9.034083,0.46163 13.555813,0.52652 5.790833,-0.0197 11.588873,-0.22961 17.352094,-0.80579 4.824361,-0.56499 9.904434,-1.42253 13.860292,-4.45362 2.77558,-2.15883 4.80174,-5.16491 6.25185,-8.3374 2.09879,-5.06224 3.15205,-10.48369 4.01239,-15.87295 0.66319,-4.46424 0.7381,-9.00717 0.4866,-13.50806 -0.14923,-2.99563 -1.26411,-5.90711 -2.94482,-8.37292 -2.29952,-3.3064 -6.14683,-5.09077 -9.970006,-5.96709 -4.803157,-1.10893 -9.759222,-1.25874 -14.663119,-1.53921 -5.655776,-0.25118 -11.320545,-0.33975 -16.98211,-0.28081 z" /><path
           id="path190"
           style="display:inline;fill:#ffffff;fill-opacity:1"
           inkscape:label="path156 message foreground"
           d="m 41.707559,175.8222 c -1.135969,0.35066 -2.137521,0.74916 -3.021125,1.20484 0.883614,-0.45567 1.885146,-0.85419 3.021125,-1.20484 z m 65.474291,5.11359 c 0.50761,0.71216 0.92741,1.52622 1.32024,2.37796 -0.39278,-0.85161 -0.8127,-1.66588 -1.32024,-2.37796 z m -45.460161,4.8757 -1.501265,0.70387 c -3.367707,1.57873 -5.085558,4.1293 -5.550031,8.23973 -0.329233,2.91361 -0.145241,11.03303 0.281111,12.40334 0.434522,1.39656 1.836485,3.3219 3.065972,4.21011 2.145445,1.54992 3.541765,1.82722 9.201194,1.82722 5.380907,0 5.748013,0.0774 5.748013,1.20812 0,0.31507 0.260034,0.90293 0.577536,1.30657 0.741261,0.94236 4.420318,3.35092 4.959916,3.247 0.226514,-0.0436 0.557286,-0.38276 0.735046,-0.75365 0.177761,-0.37088 0.416659,-1.6197 0.531048,-2.77501 l 0.207826,-2.10068 2.38671,-0.15149 c 2.765079,-0.17522 4.702933,-0.92294 6.427273,-2.48078 1.901139,-1.71757 2.035451,-2.42019 2.025751,-10.59691 -0.0071,-5.99246 -0.08223,-7.38629 -0.46542,-8.64772 -0.673479,-2.21701 -1.86694,-3.6199 -4.009389,-4.71381 l -1.81355,-0.92591 H 73.125833 Z m 48.314481,3.51826 c 0.22981,3.55954 0.0994,9.00886 -0.39104,12.35686 0.49046,-3.34815 0.62087,-8.79744 0.39104,-12.35686 z m -75.539058,22.97838 c 0.620589,2.88715 1.328759,5.32805 2.073879,6.89706 -0.745071,-1.5689 -1.45328,-4.01017 -2.073879,-6.89706 z m 2.073879,6.89706 c 1.125799,2.37062 2.393124,4.28389 3.919149,5.82951 -1.525986,-1.54566 -2.79335,-3.45889 -3.919149,-5.82951 z m 70.875019,-6.634 c -0.85016,3.12411 -1.79434,5.65895 -2.76244,7.34827 0.9681,-1.68932 1.91232,-4.22414 2.76244,-7.34827 z m -2.76244,7.34827 c -1.19822,2.09085 -2.42914,3.79568 -3.87266,5.18798 1.44355,-1.39228 2.67444,-3.09713 3.87266,-5.18798 z" /></g><g
         id="g196"
         inkscape:label="g196 conference"
         style="display:inline"
         transform="translate(-5.600347,-8.4005205)"><path
           id="path167"
           style="display:inline;fill:#84b4c4;fill-opacity:1"
           inkscape:label="path157 conference background"
           d="m 177.68359,172.50391 c -6.54523,0.14834 -13.15077,0.34855 -19.56399,1.77155 -3.00926,0.69547 -6.07978,1.79818 -8.23722,4.11206 -1.88874,1.77727 -3.28333,4.05361 -3.95465,6.5617 -1.49231,5.37494 -1.25571,11.04939 -0.67486,16.54196 0.74765,5.96242 1.73773,12.03206 4.4151,17.47366 1.95982,3.85333 4.88963,7.34745 8.8056,9.30815 4.22584,2.17708 8.97821,3.13332 13.68298,3.52412 7.0103,0.24193 14.02955,0.11564 21.04128,-0.0276 4.0576,-0.11481 8.14765,-0.12409 12.13615,-0.97259 3.14859,-0.56197 6.28013,-1.7068 8.6642,-3.90672 1.87082,-1.66341 3.651,-3.51133 4.69518,-5.8218 1.88759,-3.54349 3.19307,-7.38259 3.8561,-11.34257 0.95597,-5.5629 1.66346,-11.1888 1.64813,-16.84241 -0.0279,-2.52071 0.0507,-5.08979 -0.54366,-7.55555 -1.12963,-4.17005 -3.89054,-8.06653 -7.94113,-9.80477 -3.89616,-1.59915 -8.15437,-1.94474 -12.30717,-2.3298 -8.19233,-0.60234 -16.41377,-0.73695 -24.62626,-0.69903 -0.36526,0.003 -0.73052,0.006 -1.09578,0.01 z" /><path
           id="path196"
           style="display:inline;fill:#1b4b6b;fill-opacity:1"
           inkscape:label="path157 conference foreground"
           d="m 169.9043,187.36523 c -1.4653,0.0747 -2.96515,-0.0527 -4.40625,0.24415 -2.052,0.71872 -3.31956,2.9493 -3.25521,5.07065 -0.12664,5.80371 -0.0682,11.61091 -0.0339,17.41567 0.10849,1.63221 -0.18147,3.5309 1.06568,4.82179 1.00559,1.12208 2.39271,2.07472 3.95386,2.07274 2.62474,0.14226 5.51857,0.11387 8.26327,0.12646 6.04103,-0.016 12.08732,0.0816 18.124,-0.17825 1.58832,-1e-4 2.87371,-1.30405 3.54265,-2.63977 0.69349,-1.76742 0.0269,-3.79709 0.85133,-5.52133 0.36222,-0.69728 1.30794,-0.82532 1.87978,-0.30452 2.71097,1.61126 5.04272,3.8031 7.83692,5.27604 0.52742,0.33156 1.26151,0.31909 1.58212,-0.28792 0.51075,-0.91747 0.28404,-2.05437 0.38546,-3.06717 0.0253,-5.29496 0.0871,-10.59298 -0.0578,-15.88637 -0.0797,-0.90562 -0.006,-2.17188 -0.95462,-2.64412 -1.29204,-0.17518 -2.40561,0.72825 -3.53023,1.22334 -1.94617,0.97863 -3.83282,2.1975 -5.90922,2.9251 -1.09586,0.14511 -1.58386,-1.10869 -1.62696,-2.00391 -0.10398,-1.84792 0.0482,-3.97994 -1.34516,-5.42124 -0.62239,-0.74916 -1.56781,-1.07666 -2.52271,-1.0469 -4.71477,-0.20311 -9.56124,-0.13804 -14.33056,-0.18942 -3.17092,-0.0147 -6.34166,-0.0128 -9.5125,0.015 z" /></g><g
         id="g166"
         style="display:inline"
         inkscape:label="g166 shop"
         transform="translate(-6.1603817,-5.0403123)"><path
           id="path15"
           style="display:inline;fill:#e7d2a8"
           inkscape:label="path15 shop background"
           d="m 184.91992,102.88477 c -7.50506,0.11119 -15.04299,0.17822 -22.48873,1.21178 -4.42972,0.67343 -9.10592,1.72667 -12.52068,4.82441 -2.49286,2.26613 -4.01039,5.45873 -4.72405,8.71371 -0.57088,3.77851 -0.47591,7.62696 -0.31283,11.43442 0.25742,4.79738 1.29589,9.52564 2.65944,14.12157 1.63106,5.22314 3.92839,10.48611 8.0611,14.22458 2.51997,2.35082 5.58028,4.14832 8.94008,4.97822 4.3426,1.30825 8.91815,1.21971 13.40436,1.38212 6.60998,0.0968 13.23279,0.19184 19.8328,-0.23648 5.1588,-0.54665 10.46643,-1.48542 14.96297,-4.21683 3.17113,-1.89043 5.47536,-4.93897 6.97717,-8.26658 2.7902,-6.11337 3.86325,-12.84285 4.46056,-19.48777 0.33271,-4.54254 0.62087,-9.1247 0.16435,-13.66841 -0.40006,-4.25475 -2.47026,-8.50185 -6.11944,-10.87381 -3.36818,-2.33122 -7.50859,-3.02867 -11.50179,-3.4112 -7.23909,-0.70012 -14.52716,-0.75874 -21.79531,-0.72973 z" /><path
           id="path11"
           style="display:inline;fill:#ab8b75"
           inkscape:label="path11 shop foreground"
           d="m 166.70312,117.22656 c -0.56517,0.0557 -1.42371,-0.16021 -1.58206,0.60066 -0.32343,0.91069 -0.32831,2.26106 0.58206,2.82708 1.02557,0.4138 2.53835,-0.24355 3.20313,0.91211 0.51546,1.56257 0.70823,3.22812 1.06897,4.83686 1.13592,5.80245 2.27902,11.61315 3.31384,17.42876 0.52625,1.02873 1.68378,1.80586 1.71062,3.0334 -0.18337,0.97823 -0.59375,1.98799 -0.21655,2.98517 0.55248,2.15303 3.43035,3.44928 5.27609,2.0298 1.06733,-0.73638 1.75706,-1.98409 1.62047,-3.29837 0,-0.70443 0,-1.40885 0,-2.11328 3.60743,0.0529 7.21486,0.10667 10.82226,0.16211 -0.17449,1.49241 -0.31445,3.18693 0.74256,4.41175 1.1846,1.60765 3.73843,1.94606 5.21028,0.53344 1.50636,-1.18572 1.87951,-3.41481 0.979,-5.07956 -0.76988,-1.34557 -1.94882,-2.36868 -3.43184,-2.84024 -2.88279,-0.31685 -5.82228,-0.22733 -8.74918,-0.27458 -3.31209,-0.0107 -6.62424,-0.002 -9.93636,-0.005 -0.42733,-1.34511 -0.52665,-2.75416 -0.55664,-4.15625 7.53878,-0.11813 15.08072,-0.1017 22.61718,-0.32812 0.80084,-0.0613 1.81311,0.0152 2.24414,-0.82422 1.08366,-1.79532 1.46925,-3.90694 2.0844,-5.88969 0.65316,-2.51323 1.4537,-4.9252 1.71053,-7.49312 0.0175,-0.66502 3.7e-4,-1.5123 -0.46875,-2 -2.29259,-0.27465 -4.62102,-0.14865 -6.95743,-0.20183 -7.46059,-0.0423 -14.92425,0.0645 -22.38266,-0.12977 -0.73397,-0.12072 -1.71233,0.11736 -2.24976,-0.49262 -0.73446,-1.38233 -0.50364,-3.19413 -1.58789,-4.39258 -1.43624,-0.32359 -2.94477,-0.19122 -4.41171,-0.24582 -0.21823,0.001 -0.43646,0.002 -0.6547,0.004 z" /></g><g
         id="g167"
         style="display:inline"
         inkscape:label="g167 search"
         transform="translate(6.1603817,-5.600347)"><path
           style="display:inline;fill:#ffffff;fill-opacity:1"
           d="m 79.474041,163.17891 c 12.400759,-0.8111 17.205366,-2.42258 21.825749,-7.32043 4.14529,-4.39422 6.38128,-9.67763 8.06819,-19.06424 1.79904,-10.01051 1.41106,-18.46661 -1.08978,-23.75212 -1.70876,-3.61144 -4.43407,-5.88049 -8.706844,-7.24918 -5.372669,-1.72102 -12.156145,-2.23571 -29.647395,-2.24948 -13.788961,-0.0109 -18.807731,0.20672 -24.077082,1.0438 -8.005306,1.27171 -11.878576,4.51441 -13.381183,11.20272 -1.06352,4.73388 -0.9319,14.14573 0.315056,22.52877 1.358485,9.13283 3.831083,14.9385 7.932837,18.62633 3.617742,3.25266 9.603134,5.30144 17.436415,5.96842 1.81901,0.15489 3.72401,0.32084 4.233333,0.36879 2.265071,0.21326 13.267278,0.1467 17.090704,-0.10338 z"
           id="path166"
           inkscape:label="path159 search background" /><path
           id="path12"
           style="display:inline;fill:#8ea4a2;stroke-width:1.1"
           inkscape:label="path12 search foreground"
           d="m 70.015441,112.6395 c -6.417275,0.162 -12.343322,4.55589 -14.750976,10.44414 -0.972591,1.97064 -1.195102,4.21537 -1.208879,6.35383 -0.04497,1.57937 -0.05744,3.08359 0.336417,4.64129 0.491533,1.9575 1.402589,4.03835 2.645698,5.74311 3.411727,4.88858 9.557716,7.54832 15.456926,6.98193 2.260931,-0.16855 4.413288,-0.86158 6.497084,-1.6492 0.605642,-0.26453 1.294637,-0.29642 1.784981,0.21384 3.085317,2.37862 5.69388,5.31805 8.761601,7.71325 1.291967,-0.30027 2.663778,-0.72187 3.665234,-1.62207 0.747881,-0.65268 -0.224516,-1.44991 -0.650188,-1.97562 -2.559947,-2.68836 -5.527438,-4.9827 -7.924636,-7.82285 -0.398993,-0.77152 0.385747,-1.54639 0.662129,-2.24782 1.582481,-2.51183 2.799404,-5.42839 3.0916,-8.3295 0.152426,-1.37973 0.130604,-2.85204 -0.0777,-4.17988 -0.57386,-3.6875 -2.345904,-7.04066 -5.132347,-9.57136 -2.505456,-2.23748 -5.569575,-4.02587 -8.924125,-4.5432 -1.402052,-0.18646 -2.821203,-0.204 -4.23281,-0.14989 z m 0.835741,5.0918 c 2.210066,-0.0787 4.473983,0.23271 6.423634,1.33539 4.595239,2.40385 7.019087,8.06724 5.859413,13.07906 -0.872845,4.30882 -4.318389,7.88125 -8.521442,9.08744 -4.532014,1.42793 -9.88749,0.0429 -12.958713,-3.64183 -3.229394,-3.62696 -3.771876,-9.2594 -1.438979,-13.49259 1.548475,-2.92224 4.312767,-5.1739 7.454019,-6.1714 1.040016,-0.23782 2.122615,-0.17763 3.182068,-0.19607 z" /></g><g
         id="g195"
         inkscape:label="g195 video"
         style="display:inline"
         transform="translate(6.1603817,0.56003471)"><path
           style="display:inline;fill:#f05333;fill-opacity:1"
           d="m 84.740627,92.021287 c 9.956745,-1.106747 14.921234,-3.63459 18.703993,-9.523789 2.97341,-4.629167 5.19292,-12.711378 6.46824,-23.553744 0.59183,-5.031552 0.60908,-12.671132 0.0344,-15.213541 -1.6554,-7.32293 -5.49115,-11.032283 -13.031057,-12.601628 -5.166826,-1.075416 -24.766413,-1.748703 -38.104691,-1.308975 -9.712706,0.320202 -13.509028,0.610015 -16.404166,1.252303 -5.38247,1.194104 -8.585426,4.257838 -9.924348,9.49297 -1.47288,5.758906 -1.34197,19.402022 0.272824,28.433037 0.273209,1.527968 0.62854,3.611562 0.789625,4.630208 0.508274,3.214157 0.801175,4.197189 1.655521,5.55625 4.573076,7.274671 10.080826,11.337749 17.096589,12.612185 3.684495,0.669301 26.991161,0.830739 32.44312,0.224724 z"
           id="path194"
           inkscape:label="path162 video background" /><path
           id="path195"
           style="display:inline;fill:#ffffff;fill-opacity:1"
           inkscape:label="path162 video foreground"
           d="m 60.773438,46.085938 c -0.794104,0.0821 -1.711575,0.504131 -2.031218,1.252343 0.04137,9.049016 -0.12239,18.10661 0.292936,27.148047 -0.01127,0.957174 0.515312,2.062658 1.574219,2.142578 1.033721,-0.14411 1.908363,-0.842904 2.831188,-1.297645 7.148624,-4.245238 14.292734,-8.476677 21.254749,-12.99337 0.549844,-0.42897 0.383264,-1.170953 -0.0918,-1.576172 C 82.912377,58.730835 80.44648,57.513547 78.318065,56.104782 72.837112,52.76119 67.352392,49.415358 61.748047,46.283203 61.444388,46.14335 61.112001,46.033222 60.773438,46.085938 Z" /></g><g
         id="g199"
         inkscape:label="g199 gamepad"
         style="display:inline"
         transform="translate(-6.0641597,0.80855456)"><path
           id="path199"
           style="display:inline;fill:#2d3d57;fill-opacity:1"
           inkscape:label="path163 gamepad background"
           d="m 185.90039,28.808594 c -8.14268,0.09474 -16.30079,0.243378 -24.4043,1.095703 -3.90523,0.488225 -7.9835,1.422644 -11.08593,3.986328 -3.06588,2.548757 -4.31199,6.574749 -4.82061,10.394198 -0.77593,6.462457 -0.27132,13.01021 0.63951,19.431127 0.85516,5.457106 1.98255,10.945199 4.24976,16.011373 1.74681,3.824773 4.48763,7.320508 8.25202,9.315782 3.78511,2.028483 8.06283,2.94419 12.29647,3.438727 7.44493,0.647324 14.93377,0.674951 22.39992,0.445276 5.2359,-0.255684 10.57913,-0.460773 15.59425,-2.132186 5.50152,-1.866345 9.83241,-6.507743 11.78178,-11.927389 1.71502,-4.662076 2.4521,-9.615037 3.03077,-14.527597 0.65642,-6.682986 0.96562,-13.422628 0.54911,-20.130988 -0.17071,-3.743785 -1.43132,-7.588971 -4.20467,-10.216229 -2.51594,-2.481637 -6.0698,-3.358249 -9.41954,-4.06277 -4.59656,-0.812137 -9.2843,-0.850743 -13.93666,-1.029558 -3.64008,-0.08267 -7.28092,-0.110395 -10.92188,-0.0918 z" /><path
           id="path198"
           style="display:inline;fill:#ffffff;fill-opacity:1"
           inkscape:label="path163 gamepad foreground"
           d="m 217.20241,32.527146 c 1.19367,0.636217 2.23923,1.446715 3.12723,2.418432 -0.88801,-0.971698 -1.93356,-1.782215 -3.12723,-2.418432 z m 5.30885,5.803797 c 0.37531,0.853652 0.67599,1.772711 0.89966,2.753687 -0.22363,-0.9808 -0.52444,-1.900175 -0.89966,-2.753687 z m 0.89966,2.753687 c 0.25163,1.1036 0.42172,2.791154 0.51519,4.835221 -0.0935,-2.044105 -0.26356,-3.731621 -0.51519,-4.835221 z m 0.51519,4.835221 c 0.28041,6.132202 -0.12874,15.473598 -1.09436,21.887293 0.96562,-6.413695 1.37478,-15.754978 1.09436,-21.887293 z m -1.09436,21.887293 c -0.74926,4.976586 -1.62174,8.665268 -2.8401,11.603766 1.21849,-2.938399 2.09084,-6.62718 2.8401,-11.603766 z M 184.33319,44.387959 c -16.75169,-0.01935 -16.36356,-0.05791 -19.28893,1.895586 -3.90403,2.607008 -5.81886,6.631623 -6.73463,14.155096 -0.21521,1.768121 -0.70528,4.566189 -1.08945,6.217807 -1.19103,5.120396 -0.59181,8.706502 1.8584,11.121392 2.14006,2.109218 5.39507,2.744147 9.15307,1.785658 h 5.4e-4 c 1.55346,-0.396215 3.16856,-1.66371 5.51449,-4.328237 3.23286,-3.671911 2.98503,-3.591551 11.0574,-3.591551 8.39817,0 7.80461,-0.213224 11.77987,4.233622 3.19687,3.576103 5.32179,4.464855 9.54411,3.991341 3.129,-0.350903 5.09969,-1.718097 6.325,-4.388397 0.85505,-1.863353 0.85235,-6.420828 -0.006,-9.603173 -0.32545,-1.207145 -0.76878,-3.64821 -0.98498,-5.424242 -0.94137,-7.733263 -2.7844,-11.440272 -7.07645,-14.232757 -2.71625,-1.767245 -3.21585,-1.812695 -20.05242,-1.832145 z m -12.56797,7.147552 c 1.23772,0 2.03842,0.120165 2.20569,0.33088 0.14441,0.181901 0.32434,1.144912 0.40034,2.140602 0.076,0.99569 0.2681,1.940004 0.42658,2.098489 0.15848,0.158484 1.00716,0.373311 1.88575,0.476905 0.87858,0.103594 1.77356,0.334669 1.9891,0.513547 0.5047,0.41888 0.55167,3.766949 0.0585,4.176196 -0.18334,0.15216 -1.08062,0.361533 -1.99403,0.464873 -2.08799,0.236229 -2.43538,0.658469 -2.43538,2.962605 0,1.872812 0.0758,1.80553 -2.26858,2.018094 -1.19768,0.108594 -1.75402,0.04322 -2.18271,-0.257047 -0.48705,-0.341128 -0.57535,-0.658403 -0.57535,-2.066769 0,-2.066223 -0.34989,-2.431667 -2.48734,-2.599458 -1.92296,-0.150955 -2.27514,-0.55191 -2.27514,-2.586332 0,-2.06189 0.3502,-2.447453 2.35335,-2.592348 1.99739,-0.144478 2.40913,-0.596368 2.40913,-2.643211 0,-2.233897 0.20743,-2.437026 2.49007,-2.437026 z m 25.22399,0.14876 c 0.38443,-0.016 0.82748,-0.005 1.23601,0.03719 1.30479,0.134665 1.50556,0.233861 1.65112,0.813801 0.0911,0.363163 0.0593,1.09038 -0.0705,1.616116 l -0.23572,0.955996 -1.72276,0.07657 c -1.11197,0.04957 -1.83852,-0.03919 -2.05036,-0.251032 -0.18048,-0.180477 -0.32815,-0.902529 -0.32815,-1.60463 0,-1.104273 0.0858,-1.309223 0.63551,-1.518219 0.17475,-0.06644 0.50046,-0.109789 0.8849,-0.125789 z m 5.89349,5.513935 c 0.3567,-0.0101 0.76075,0.01637 1.1682,0.08094 l 1.33992,0.2122 0.0793,1.675729 c 0.0477,1.007276 -0.0443,1.823977 -0.2308,2.048721 -0.38746,0.466851 -3.1782,0.510153 -3.63202,0.05633 -0.18001,-0.180012 -0.31776,-1.041974 -0.31776,-1.990748 0,-1.572636 0.0428,-1.689668 0.71099,-1.943714 0.21628,-0.08223 0.52546,-0.129362 0.88216,-0.139462 z m -10.63683,0.03992 c 1.69707,0.0173 1.89113,0.250838 1.89613,2.291549 0.003,1.226654 -0.0929,1.564008 -0.50808,1.786204 -0.65108,0.348448 -2.65237,0.340995 -3.25848,-0.01203 -0.36558,-0.212949 -0.46268,-0.630574 -0.46268,-1.984732 0,-1.987949 0.12889,-2.103459 2.33311,-2.080989 z m 3.35528,6.071236 h 1.98419 1.98473 l 0.22314,0.925917 c 0.13866,0.575195 0.11606,1.201913 -0.0596,1.653852 -0.27142,0.698289 -0.3582,0.727389 -2.1499,0.727389 -1.34135,0 -1.90616,-0.102468 -2.00661,-0.364242 -0.0769,-0.200391 -0.10307,-0.944738 -0.058,-1.653852 z m 11.22968,27.494203 c -2.94003,0.760858 -6.52491,1.229951 -11.46266,1.479389 4.93798,-0.249449 8.52261,-0.718378 11.46266,-1.479389 z" /></g><path
         style="display:none;fill:#152326"
         d="m 58.414587,238.87165 c -2.255573,-0.11584 -4.577291,-0.29338 -5.159375,-0.39454 -9.501804,-1.65132 -14.202247,-3.77008 -18.764226,-8.45814 -5.893449,-6.05633 -8.625704,-14.57414 -10.731611,-33.45583 -0.626869,-5.62055 -0.893738,-6.89799 -1.758863,-8.41929 -0.802815,-1.41173 -1.802127,-2.11712 -3.521712,-2.48591 -0.752296,-0.16134 -1.688798,-0.56925 -2.081115,-0.90647 l -0.713304,-0.61313 -0.06943,-6.30719 c -0.07476,-6.79164 0.01335,-7.34206 1.271853,-7.94552 0.361777,-0.17348 1.965637,-0.44209 3.564132,-0.59693 1.598496,-0.15484 4.454169,-0.47389 6.345939,-0.709 1.891771,-0.23511 5.990122,-0.62319 9.107446,-0.86239 3.77968,-0.29002 5.702555,-0.53898 5.771999,-0.74732 0.05728,-0.17182 -0.409669,-0.57262 -1.037654,-0.89066 -6.985322,-3.53765 -11.643256,-10.38528 -14.363178,-21.11531 -1.023403,-4.0373 -1.916073,-9.91365 -2.637276,-17.36089 -0.71487,-7.38185 -0.890049,-8.31975 -1.80504,-9.66409 -0.858622,-1.26152 -1.724707,-1.80451 -3.370279,-2.11298 -0.938189,-0.17587 -1.68985,-0.50757 -2.116667,-0.93406 l -0.66185,-0.66134 -0.07965,-6.19923 c -0.08774,-6.82899 0.02906,-7.47261 1.456234,-8.02416 0.8405,-0.324824 13.814315,-1.73274 20.58383,-2.233752 3.069546,-0.227178 4.497917,-0.431244 4.497917,-0.642601 0,-0.170341 -0.9525,-0.930056 -2.116667,-1.688257 C 31.856401,90.121917 28.072256,84.293231 25.501383,73.070448 24.258274,67.643831 23.51274,61.624861 22.948672,52.461462 22.651665,47.636534 22.221902,44.983843 21.516096,43.618964 20.923691,42.473379 19.602748,41.500428 18.375885,41.306017 17.637227,41.188969 16.987316,40.84754 16.411985,40.27429 l -0.859896,-0.856785 v -6.389598 c 0,-6.962052 0.106183,-7.552602 1.469682,-8.173854 0.393589,-0.179331 1.980096,-0.439501 3.525571,-0.578155 1.545476,-0.138654 3.167143,-0.309555 3.603705,-0.379779 2.225562,-0.358001 20.225233,-1.630258 28.310415,-2.001044 7.961904,-0.365133 25.980411,-0.368133 32.014582,-0.0053 14.890408,0.895279 21.141346,2.141916 25.777116,5.140783 1.82795,1.182495 3.28909,2.534113 5.97288,5.525184 0.992,1.105571 1.60728,1.549303 2.45972,1.773894 0.76624,0.201884 3.91413,0.273547 9.65729,0.219852 7.58152,-0.07088 8.61568,-0.131656 9.38427,-0.551481 0.47507,-0.259502 1.72351,-1.486763 2.7743,-2.727247 2.30469,-2.720737 4.02461,-4.061122 7.00047,-5.455656 6.85111,-3.210538 18.34459,-4.443526 41.39553,-4.44079 14.47759,0.0017 19.94039,0.264852 36.20446,1.743905 9.54298,0.867838 13.14764,1.351661 14.05244,1.886137 1.29278,0.763664 1.42568,1.511506 1.42568,8.022183 0,5.297338 -0.0533,6.046327 -0.47597,6.691185 -0.51174,0.780716 -1.51794,1.322387 -3.27017,1.760447 -0.70429,0.176073 -1.39061,0.605706 -1.90687,1.193701 -1.40784,1.603441 -1.79774,3.667334 -2.42423,12.832329 -0.74758,10.936608 -2.56977,20.737717 -4.90812,26.399636 -2.4505,5.933465 -6.1132,10.449565 -10.95943,13.512922 -2.34745,1.483853 -2.53543,1.655023 -2.08078,1.894773 0.19855,0.104697 2.20646,0.330643 4.46203,0.502102 6.56904,0.49935 19.11563,1.880423 19.92237,2.192966 1.41399,0.5478 1.5733,1.31412 1.60887,7.73897 0.0254,4.58549 -0.0478,5.97628 -0.34164,6.49613 -0.52439,0.92757 -1.05151,1.26582 -2.27189,1.45791 -1.90264,0.29947 -2.73918,0.67683 -3.5516,1.60213 -1.11911,1.27459 -1.5076,2.90715 -2.13659,8.9785 -0.99586,9.6127 -2.56478,18.21187 -4.22913,23.17961 -0.91002,2.71625 -2.80156,6.58249 -4.32244,8.83497 -2.10814,3.12221 -5.57772,6.26466 -8.59786,7.78719 -0.62799,0.31658 -1.09435,0.71793 -1.03637,0.89188 0.0708,0.21224 1.62118,0.42046 4.71367,0.63304 2.53453,0.17423 6.21558,0.50222 8.18011,0.72887 1.96453,0.22666 5.33589,0.5875 7.49191,0.80188 2.15602,0.21437 4.23853,0.54242 4.6278,0.72899 1.27098,0.60916 1.40388,1.3098 1.45716,7.68187 0.0629,7.52653 0.0721,7.50321 -3.19036,8.11903 -1.83489,0.34636 -2.6204,0.90072 -3.35523,2.36791 -0.85815,1.7134 -1.10911,3.00371 -2.01183,10.34371 -2.07226,16.84952 -3.95636,23.16846 -8.84611,29.66837 -4.80204,6.38332 -11.32254,9.47968 -22.2348,10.55854 -4.4932,0.44423 -26.58087,0.46123 -30.69166,0.0236 -12.77639,-1.3601 -19.55907,-4.84305 -24.54019,-12.60158 -4.30246,-6.70145 -6.10902,-13.01505 -8.54039,-29.84713 -0.53886,-3.73044 -1.34438,-5.57027 -2.77046,-6.32777 -0.83515,-0.44362 -1.48904,-0.48432 -6.66206,-0.41475 -5.29707,0.0712 -5.79313,0.1187 -6.48229,0.62007 -1.31854,0.95925 -1.84808,2.5246 -2.591,7.65916 -2.52842,17.47492 -5.91731,26.56331 -12.29415,32.9707 -4.57008,4.59196 -10.023362,6.71036 -19.99511,7.76735 -4.407229,0.46716 -21.851368,0.72709 -27.910803,0.4159 z m 18.827129,-7.68067 c 17.32864,-0.72282 22.649198,-2.9082 27.442074,-11.27162 1.93621,-3.37864 3.77572,-10.13875 4.96139,-18.23291 0.66002,-4.50565 0.6739,-12.84091 0.0253,-15.21354 -1.91496,-7.00553 -5.95335,-10.29475 -14.449343,-11.76883 -7.204733,-1.25005 -27.627271,-1.76022 -39.18784,-0.97896 -16.79246,1.13484 -21.664057,3.64713 -23.403708,12.06932 -1.425865,6.90306 0.960677,27.13478 3.941155,33.41082 3.002132,6.32163 7.011766,9.39178 14.245005,10.9073 3.753269,0.78639 4.454882,0.86344 9.709133,1.06627 7.362979,0.28423 10.145482,0.28626 16.716794,0.0121 z m 124.444734,-0.37734 c 7.06111,-0.95436 9.71177,-2.05402 13.11381,-5.44045 2.03065,-2.02133 2.43514,-2.59883 3.89623,-5.56278 2.40813,-4.88506 3.30067,-8.53894 4.45948,-18.25625 0.6427,-5.38939 0.65139,-13.5528 0.0169,-15.875 -1.20674,-4.4166 -3.71354,-7.69592 -7.20026,-9.41915 -4.03277,-1.9931 -11.92749,-2.872 -28.44136,-3.16631 -18.99887,-0.33859 -29.83832,0.83244 -34.84064,3.764 -1.81218,1.06201 -4.04649,3.40709 -5.0518,5.30225 -2.45358,4.62541 -2.9332,12.51632 -1.37763,22.66561 1.45776,9.51111 3.67728,15.05654 7.7877,19.45743 3.47335,3.71881 9.1443,5.99962 17.10654,6.88009 3.77439,0.41738 26.80803,0.15375 30.53103,-0.34944 z m -64.05869,-54.21855 c 0.40689,-0.26681 1.83015,-1.59318 3.16279,-2.94749 1.84919,-1.87926 2.87733,-2.68939 4.34151,-3.42096 2.34984,-1.17409 5.72854,-2.14954 9.04332,-2.61087 1.37235,-0.19099 2.54122,-0.48535 2.59748,-0.65414 0.0563,-0.16879 -0.60684,-0.66486 -1.47356,-1.10238 -2.18408,-1.10252 -5.25264,-3.63548 -6.99094,-5.7707 -5.59257,-6.86959 -8.37755,-14.56283 -10.5147,-29.04584 -1.48299,-10.04994 -1.6064,-10.19033 -9.13565,-10.39327 -5.27518,-0.14218 -7.11346,0.1309 -8.14244,1.20959 -1.02222,1.07158 -1.17786,1.68357 -2.19258,8.62171 -1.6834,11.5102 -3.30686,17.4279 -6.35551,23.16651 -3.10361,5.84208 -6.72003,9.81212 -10.97476,12.04792 -1.023905,0.53805 -1.816267,1.11439 -1.76081,1.28076 0.05546,0.16638 1.16606,0.44519 2.46799,0.61958 6.76494,0.90616 10.25719,2.56527 13.43845,6.38434 1.49496,1.7947 2.47223,2.55738 3.82418,2.98446 0.3867,0.12216 4.57812,0.19821 9.31426,0.169 7.85167,-0.0484 8.67642,-0.0959 9.35097,-0.53822 z M 79.474041,163.17891 c 12.400759,-0.8111 17.205366,-2.42258 21.825749,-7.32043 4.14529,-4.39422 6.38128,-9.67763 8.06819,-19.06424 1.79904,-10.01051 1.41106,-18.46661 -1.08978,-23.75212 -1.70876,-3.61144 -4.43407,-5.88049 -8.706844,-7.24918 -5.372669,-1.72102 -12.156145,-2.23571 -29.647395,-2.24948 -13.788961,-0.0109 -18.807731,0.20672 -24.077082,1.0438 -8.005306,1.27171 -11.878576,4.51441 -13.381183,11.20272 -1.06352,4.73388 -0.9319,14.14573 0.315056,22.52877 1.358485,9.13283 3.831083,14.9385 7.932837,18.62633 3.617742,3.25266 9.603134,5.30144 17.436415,5.96842 1.81901,0.15489 3.72401,0.32084 4.233333,0.36879 2.265071,0.21326 13.267278,0.1467 17.090704,-0.10338 z m 119.037409,-0.27135 c 9.25818,-1.05444 14.8836,-3.51203 18.27063,-7.98195 4.25929,-5.62106 6.78791,-16.03635 7.18435,-29.59212 0.22496,-7.69241 -0.40536,-11.07919 -2.70447,-14.53141 -1.7734,-2.66284 -4.845,-4.66549 -8.72759,-5.69027 -4.73115,-1.24876 -15.77015,-1.84481 -30.29479,-1.63576 -20.82221,0.2997 -28.47855,1.88986 -32.92819,6.83893 -1.52579,1.69704 -2.89185,4.44275 -3.4999,7.03459 -0.66605,2.83903 -0.6658,11.34431 4.5e-4,15.67751 1.23314,8.02014 3.52827,14.96456 6.4709,19.57917 2.13342,3.3456 5.28814,6.20098 8.76945,7.93734 1.92991,0.96257 5.64531,1.97203 8.29554,2.25386 5.74857,0.61131 24.15286,0.6808 29.16362,0.11011 z M 137.525,108.17938 c 0.3638,-0.19797 1.85208,-1.56553 3.30729,-3.03902 4.0493,-4.1002 7.78785,-5.91657 14.61574,-7.101065 2.0748,-0.359934 3.24364,-0.679374 3.24364,-0.886476 0,-0.178075 -0.7653,-0.681896 -1.70065,-1.119601 -5.25146,-2.457456 -9.20808,-6.571531 -12.38714,-12.880091 -3.22106,-6.391922 -5.12755,-13.596727 -6.68619,-25.267707 -1.09918,-8.230577 -1.75298,-9.936744 -4.05248,-10.57543 -1.24187,-0.344931 -10.21035,-0.355245 -11.40329,-0.01311 -1.25521,0.35999 -2.31233,1.457301 -2.78626,2.892207 -0.22055,0.667726 -0.76031,3.714358 -1.19947,6.770296 -1.45035,10.092294 -2.80634,16.420868 -4.51425,21.068646 -2.94173,8.005391 -7.94678,14.539534 -13.54474,17.682821 -2.338764,1.313226 -2.309914,1.664969 0.16046,1.956364 3.32959,0.392744 7.56039,1.855711 10.21077,3.530766 1.84733,1.16753 2.87213,2.1255 4.68693,4.38128 1.62423,2.0189 2.35624,2.57913 3.75002,2.87001 0.53318,0.11128 4.71988,0.17706 9.30379,0.14619 6.44242,-0.0434 8.48453,-0.13784 8.99583,-0.41608 z M 84.740627,92.021287 c 9.956745,-1.106747 14.921234,-3.63459 18.703993,-9.523789 2.97341,-4.629167 5.19292,-12.711378 6.46824,-23.553744 0.59183,-5.031552 0.60908,-12.671132 0.0344,-15.213541 -1.6554,-7.32293 -5.49115,-11.032283 -13.031057,-12.601628 -5.166826,-1.075416 -24.766413,-1.748703 -38.104691,-1.308975 -9.712706,0.320202 -13.509028,0.610015 -16.404166,1.252303 -5.38247,1.194104 -8.585426,4.257838 -9.924348,9.49297 -1.47288,5.758906 -1.34197,19.402022 0.272824,28.433037 0.273209,1.527968 0.62854,3.611562 0.789625,4.630208 0.508274,3.214157 0.801175,4.197189 1.655521,5.55625 4.573076,7.274671 10.080826,11.337749 17.096589,12.612185 3.684495,0.669301 26.991161,0.830739 32.44312,0.224724 z m 110.627523,0.261805 c 10.77516,-0.544322 15.5831,-1.952094 19.70708,-5.770267 4.26711,-3.950694 6.25826,-8.752359 7.75677,-18.70553 1.28749,-8.551594 1.58562,-22.308515 0.57911,-26.722915 -0.89468,-3.923902 -3.02546,-6.860795 -6.20856,-8.557372 -1.91409,-1.0202 -5.73072,-2.05475 -8.90151,-2.412878 -11.50682,-1.299647 -41.72774,-0.831927 -49.47708,0.765742 -7.48878,1.54395 -10.90195,4.716388 -12.33632,11.466235 -2.03321,9.567882 0.4628,29.172841 4.81245,37.79947 3.44499,6.832414 8.10466,9.879617 17.57643,11.494139 4.6563,0.793696 17.39281,1.103015 26.49163,0.643376 z"
         id="path135"
         inkscape:label="path1 frames black"
         sodipodi:nodetypes="ssssssscsssssssssssscsssssssssscssssscssssssssssssssssssssscsssssssssssssssssssssssssssssscssssssssssssssssssssssssssssssssssssssssssssscssssssssssssssssssssssssssssssssssssssscsscssssssssccsssssssssss" /><path
         style="display:none;fill:#152326"
         d="m 201.68645,230.81364 c 7.06111,-0.95436 9.71177,-2.05402 13.11381,-5.44045 2.03065,-2.02133 2.43514,-2.59883 3.89623,-5.56278 2.40813,-4.88506 3.30067,-8.53894 4.45948,-18.25625 0.6427,-5.38939 0.65139,-13.5528 0.0169,-15.875 -1.20674,-4.4166 -3.71354,-7.69592 -7.20026,-9.41915 -4.03277,-1.9931 -11.92749,-2.872 -28.44136,-3.16631 -18.99887,-0.33859 -29.83832,0.83244 -34.84064,3.764 -1.81218,1.06201 -4.04649,3.40709 -5.0518,5.30225 -2.45358,4.62541 -2.9332,12.51632 -1.37763,22.66561 1.45776,9.51111 3.67728,15.05654 7.7877,19.45743 3.47335,3.71881 9.1443,5.99962 17.10654,6.88009 3.77439,0.41738 26.80803,0.15375 30.53103,-0.34944 z"
         id="path157"
         inkscape:label="path157 frame lens bottom right" /><path
         style="display:none;fill:#1f5361;fill-opacity:1"
         d="m 77.241716,231.19098 c 17.32864,-0.72282 22.649198,-2.9082 27.442074,-11.27162 1.93621,-3.37864 3.77572,-10.13875 4.96139,-18.23291 0.66002,-4.50565 0.6739,-12.84091 0.0253,-15.21354 -1.91496,-7.00553 -5.95335,-10.29475 -14.449343,-11.76883 -7.204733,-1.25005 -27.627271,-1.76022 -39.18784,-0.97896 -16.79246,1.13484 -21.664057,3.64713 -23.403708,12.06932 -1.425865,6.90306 0.960677,27.13478 3.941155,33.41082 3.002132,6.32163 7.011766,9.39178 14.245005,10.9073 3.753269,0.78639 4.454882,0.86344 9.709133,1.06627 7.362979,0.28423 10.145482,0.28626 16.716794,0.0121 z"
         id="path189"
         inkscape:label="path156 frame lens bottom left" /><path
         style="display:none;fill:#152326"
         d="m 137.62776,176.59509 c 0.40689,-0.26681 1.83015,-1.59318 3.16279,-2.94749 1.84919,-1.87926 2.87733,-2.68939 4.34151,-3.42096 2.34984,-1.17409 5.72854,-2.14954 9.04332,-2.61087 1.37235,-0.19099 2.54122,-0.48535 2.59748,-0.65414 0.0563,-0.16879 -0.60684,-0.66486 -1.47356,-1.10238 -2.18408,-1.10252 -5.25264,-3.63548 -6.99094,-5.7707 -5.59257,-6.86959 -8.37755,-14.56283 -10.5147,-29.04584 -1.48299,-10.04994 -1.6064,-10.19033 -9.13565,-10.39327 -5.27518,-0.14218 -7.11346,0.1309 -8.14244,1.20959 -1.02222,1.07158 -1.17786,1.68357 -2.19258,8.62171 -1.6834,11.5102 -3.30686,17.4279 -6.35551,23.16651 -3.10361,5.84208 -6.72003,9.81212 -10.97476,12.04792 -1.023905,0.53805 -1.816267,1.11439 -1.76081,1.28076 0.05546,0.16638 1.16606,0.44519 2.46799,0.61958 6.76494,0.90616 10.25719,2.56527 13.43845,6.38434 1.49496,1.7947 2.47223,2.55738 3.82418,2.98446 0.3867,0.12216 4.57812,0.19821 9.31426,0.169 7.85167,-0.0484 8.67642,-0.0959 9.35097,-0.53822 z"
         id="path158"
         inkscape:label="path158 frame nose mid" /><path
         style="display:none;fill:#152326"
         d="m 198.51145,162.90756 c 9.25818,-1.05444 14.8836,-3.51203 18.27063,-7.98195 4.25929,-5.62106 6.78791,-16.03635 7.18435,-29.59212 0.22496,-7.69241 -0.40536,-11.07919 -2.70447,-14.53141 -1.7734,-2.66284 -4.845,-4.66549 -8.72759,-5.69027 -4.73115,-1.24876 -15.77015,-1.84481 -30.29479,-1.63576 -20.82221,0.2997 -28.47855,1.88986 -32.92819,6.83893 -1.52579,1.69704 -2.89185,4.44275 -3.4999,7.03459 -0.66605,2.83903 -0.6658,11.34431 4.5e-4,15.67751 1.23314,8.02014 3.52827,14.96456 6.4709,19.57917 2.13342,3.3456 5.28814,6.20098 8.76945,7.93734 1.92991,0.96257 5.64531,1.97203 8.29554,2.25386 5.74857,0.61131 24.15286,0.6808 29.16362,0.11011 z"
         id="path160"
         inkscape:label="path160 frame lens mid right" /><path
         style="display:none;fill:#152326"
         d="m 79.474041,163.17891 c 12.400759,-0.8111 17.205366,-2.42258 21.825749,-7.32043 4.14529,-4.39422 6.38128,-9.67763 8.06819,-19.06424 1.79904,-10.01051 1.41106,-18.46661 -1.08978,-23.75212 -1.70876,-3.61144 -4.43407,-5.88049 -8.706844,-7.24918 -5.372669,-1.72102 -12.156145,-2.23571 -29.647395,-2.24948 -13.788961,-0.0109 -18.807731,0.20672 -24.077082,1.0438 -8.005306,1.27171 -11.878576,4.51441 -13.381183,11.20272 -1.06352,4.73388 -0.9319,14.14573 0.315056,22.52877 1.358485,9.13283 3.831083,14.9385 7.932837,18.62633 3.617742,3.25266 9.603134,5.30144 17.436415,5.96842 1.81901,0.15489 3.72401,0.32084 4.233333,0.36879 2.265071,0.21326 13.267278,0.1467 17.090704,-0.10338 z"
         id="path159"
         inkscape:label="path159 frame lens mid left" /><path
         style="display:none;fill:#152326"
         d="m 137.525,108.17938 c 0.3638,-0.19797 1.85208,-1.56553 3.30729,-3.03902 4.0493,-4.1002 7.78785,-5.91657 14.61574,-7.101065 2.0748,-0.359934 3.24364,-0.679374 3.24364,-0.886476 0,-0.178075 -0.7653,-0.681896 -1.70065,-1.119601 -5.25146,-2.457456 -9.20808,-6.571531 -12.38714,-12.880091 -3.22106,-6.391922 -5.12755,-13.596727 -6.68619,-25.267707 -1.09918,-8.230577 -1.75298,-9.936744 -4.05248,-10.57543 -1.24187,-0.344931 -10.21035,-0.355245 -11.40329,-0.01311 -1.25521,0.35999 -2.31233,1.457301 -2.78626,2.892207 -0.22055,0.667726 -0.76031,3.714358 -1.19947,6.770296 -1.45035,10.092294 -2.80634,16.420868 -4.51425,21.068646 -2.94173,8.005391 -7.94678,14.539534 -13.54474,17.682821 -2.338764,1.313226 -2.309914,1.664969 0.16046,1.956364 3.32959,0.392744 7.56039,1.855711 10.21077,3.530766 1.84733,1.16753 2.87213,2.1255 4.68693,4.38128 1.62423,2.0189 2.35624,2.57913 3.75002,2.87001 0.53318,0.11128 4.71988,0.17706 9.30379,0.14619 6.44242,-0.0434 8.48453,-0.13784 8.99583,-0.41608 z"
         id="path161"
         inkscape:label="path161 frame nose top" /><path
         style="display:none;fill:#152326"
         d="m 195.36815,92.283092 c 10.77516,-0.544322 15.5831,-1.952094 19.70708,-5.770267 4.26711,-3.950694 6.25826,-8.752359 7.75677,-18.70553 1.28749,-8.551594 1.58562,-22.308515 0.57911,-26.722915 -0.89468,-3.923902 -3.02546,-6.860795 -6.20856,-8.557372 -1.91409,-1.0202 -5.73072,-2.05475 -8.90151,-2.412878 -11.50682,-1.299647 -41.72774,-0.831927 -49.47708,0.765742 -7.48878,1.54395 -10.90195,4.716388 -12.33632,11.466235 -2.03321,9.567882 0.4628,29.172841 4.81245,37.79947 3.44499,6.832414 8.10466,9.879617 17.57643,11.494139 4.6563,0.793696 17.39281,1.103015 26.49163,0.643376 z"
         id="path163"
         inkscape:label="path163 frame lens top right" /><path
         style="display:none;fill:#152326"
         d="m 84.740627,92.021287 c 9.956745,-1.106747 14.921234,-3.63459 18.703993,-9.523789 2.97341,-4.629167 5.19292,-12.711378 6.46824,-23.553744 0.59183,-5.031552 0.60908,-12.671132 0.0344,-15.213541 -1.6554,-7.32293 -5.49115,-11.032283 -13.031057,-12.601628 -5.166826,-1.075416 -24.766413,-1.748703 -38.104691,-1.308975 -9.712706,0.320202 -13.509028,0.610015 -16.404166,1.252303 -5.38247,1.194104 -8.585426,4.257838 -9.924348,9.49297 -1.47288,5.758906 -1.34197,19.402022 0.272824,28.433037 0.273209,1.527968 0.62854,3.611562 0.789625,4.630208 0.508274,3.214157 0.801175,4.197189 1.655521,5.55625 4.573076,7.274671 10.080826,11.337749 17.096589,12.612185 3.684495,0.669301 26.991161,0.830739 32.44312,0.224724 z"
         id="path162"
         inkscape:label="path162 frame lens top left" /><path
         style="display:none;fill:#152326"
         d="m 58.414587,238.87165 c -2.255573,-0.11584 -4.577291,-0.29338 -5.159375,-0.39454 -9.501804,-1.65132 -14.202247,-3.77008 -18.764226,-8.45814 -5.893449,-6.05633 -8.625704,-14.57414 -10.731611,-33.45583 -0.626869,-5.62055 -0.893738,-6.89799 -1.758863,-8.41929 -0.802815,-1.41173 -1.802127,-2.11712 -3.521712,-2.48591 -0.752296,-0.16134 -1.688798,-0.56925 -2.081115,-0.90647 l -0.713304,-0.61313 -0.06943,-6.30719 c -0.07476,-6.79164 0.01335,-7.34206 1.271853,-7.94552 0.361777,-0.17348 1.965637,-0.44209 3.564132,-0.59693 1.598496,-0.15484 4.454169,-0.47389 6.345939,-0.709 1.891771,-0.23511 5.990122,-0.62319 9.107446,-0.86239 3.77968,-0.29002 5.702555,-0.53898 5.771999,-0.74732 0.05728,-0.17182 -0.409669,-0.57262 -1.037654,-0.89066 -6.985322,-3.53765 -11.643256,-10.38528 -14.363178,-21.11531 -1.023403,-4.0373 -1.916073,-9.91365 -2.637276,-17.36089 -0.71487,-7.38185 -0.890049,-8.31975 -1.80504,-9.66409 -0.858622,-1.26152 -1.724707,-1.80451 -3.370279,-2.11298 -0.938189,-0.17587 -1.68985,-0.50757 -2.116667,-0.93406 l -0.66185,-0.66134 -0.07965,-6.19923 c -0.08774,-6.82899 0.02906,-7.47261 1.456234,-8.02416 0.8405,-0.324824 13.814315,-1.73274 20.58383,-2.233752 3.069546,-0.227178 4.497917,-0.431244 4.497917,-0.642601 0,-0.170341 -0.9525,-0.930056 -2.116667,-1.688257 C 31.856401,90.121917 28.072256,84.293231 25.501383,73.070448 24.258274,67.643831 23.51274,61.624861 22.948672,52.461462 22.651665,47.636534 22.221902,44.983843 21.516096,43.618964 20.923691,42.473379 19.602748,41.500428 18.375885,41.306017 17.637227,41.188969 16.987316,40.84754 16.411985,40.27429 l -0.859896,-0.856785 v -6.389598 c 0,-6.962052 0.106183,-7.552602 1.469682,-8.173854 0.393589,-0.179331 1.980096,-0.439501 3.525571,-0.578155 1.545476,-0.138654 3.167143,-0.309555 3.603705,-0.379779 2.225562,-0.358001 20.225233,-1.630258 28.310415,-2.001044 7.961904,-0.365133 25.980411,-0.368133 32.014582,-0.0053 14.890408,0.895279 21.141346,2.141916 25.777116,5.140783 1.82795,1.182495 3.28909,2.534113 5.97288,5.525184 0.992,1.105571 1.60728,1.549303 2.45972,1.773894 0.76624,0.201884 3.91413,0.273547 9.65729,0.219852 7.58152,-0.07088 8.61568,-0.131656 9.38427,-0.551481 0.47507,-0.259502 1.72351,-1.486763 2.7743,-2.727247 2.30469,-2.720737 4.02461,-4.061122 7.00047,-5.455656 6.85111,-3.210538 18.34459,-4.443526 41.39553,-4.44079 14.47759,0.0017 19.94039,0.264852 36.20446,1.743905 9.54298,0.867838 13.14764,1.351661 14.05244,1.886137 1.29278,0.763664 1.42568,1.511506 1.42568,8.022183 0,5.297338 -0.0533,6.046327 -0.47597,6.691185 -0.51174,0.780716 -1.51794,1.322387 -3.27017,1.760447 -0.70429,0.176073 -1.39061,0.605706 -1.90687,1.193701 -1.40784,1.603441 -1.79774,3.667334 -2.42423,12.832329 -0.74758,10.936608 -2.56977,20.737717 -4.90812,26.399636 -2.4505,5.933465 -6.1132,10.449565 -10.95943,13.512922 -2.34745,1.483853 -2.53543,1.655023 -2.08078,1.894773 0.19855,0.104697 2.20646,0.330643 4.46203,0.502102 6.56904,0.49935 19.11563,1.880423 19.92237,2.192966 1.41399,0.5478 1.5733,1.31412 1.60887,7.73897 0.0254,4.58549 -0.0478,5.97628 -0.34164,6.49613 -0.52439,0.92757 -1.05151,1.26582 -2.27189,1.45791 -1.90264,0.29947 -2.73918,0.67683 -3.5516,1.60213 -1.11911,1.27459 -1.5076,2.90715 -2.13659,8.9785 -0.99586,9.6127 -2.56478,18.21187 -4.22913,23.17961 -0.91002,2.71625 -2.80156,6.58249 -4.32244,8.83497 -2.10814,3.12221 -5.57772,6.26466 -8.59786,7.78719 -0.62799,0.31658 -1.09435,0.71793 -1.03637,0.89188 0.0708,0.21224 1.62118,0.42046 4.71367,0.63304 2.53453,0.17423 6.21558,0.50222 8.18011,0.72887 1.96453,0.22666 5.33589,0.5875 7.49191,0.80188 2.15602,0.21437 4.23853,0.54242 4.6278,0.72899 1.27098,0.60916 1.40388,1.3098 1.45716,7.68187 0.0629,7.52653 0.0721,7.50321 -3.19036,8.11903 -1.83489,0.34636 -2.6204,0.90072 -3.35523,2.36791 -0.85815,1.7134 -1.10911,3.00371 -2.01183,10.34371 -2.07226,16.84952 -3.95636,23.16846 -8.84611,29.66837 -4.80204,6.38332 -11.32254,9.47968 -22.2348,10.55854 -4.4932,0.44423 -26.58087,0.46123 -30.69166,0.0236 -12.77639,-1.3601 -19.55907,-4.84305 -24.54019,-12.60158 -4.30246,-6.70145 -6.10902,-13.01505 -8.54039,-29.84713 -0.53886,-3.73044 -1.34438,-5.57027 -2.77046,-6.32777 -0.83515,-0.44362 -1.48904,-0.48432 -6.66206,-0.41475 -5.29707,0.0712 -5.79313,0.1187 -6.48229,0.62007 -1.31854,0.95925 -1.84808,2.5246 -2.591,7.65916 -2.52842,17.47492 -5.91731,26.56331 -12.29415,32.9707 -4.57008,4.59196 -10.023362,6.71036 -19.99511,7.76735 -4.407229,0.46716 -21.851368,0.72709 -27.910803,0.4159 z"
         id="path169"
         inkscape:label="path155 frame whole" /><path
         id="path200"
         style="display:none;fill:#152326"
         inkscape:label="path1 frame bottom"
         d="m 35.904309,167.71755 c -3.23975,0.26081 -7.215903,0.62682 -9.107674,0.86193 -1.89177,0.23511 -4.747288,0.5545 -6.345784,0.70934 -1.598495,0.15484 -3.202428,0.4232 -3.564205,0.59668 -1.258503,0.60346 -1.346323,1.15385 -1.271563,7.94549 l 0.06946,6.3075 0.713169,0.61309 c 0.392317,0.33722 1.328692,0.74488 2.080988,0.90622 1.719585,0.36879 2.718731,1.07452 3.521546,2.48625 0.865125,1.5213 1.13199,2.79857 1.758859,8.41912 2.105907,18.88169 4.838544,27.39972 10.731993,33.45605 4.561979,4.68806 9.262093,6.80663 18.763897,8.45795 0.582084,0.10116 2.903965,0.27848 5.159538,0.39432 6.059435,0.31119 23.503719,0.0515 27.910948,-0.41565 9.971748,-1.05699 15.424909,-3.17524 19.994989,-7.7672 6.37684,-6.40739 9.76554,-15.49603 12.29396,-32.97095 0.74292,-5.13456 1.27272,-6.69966 2.59126,-7.65891 0.68916,-0.50137 1.18544,-0.54899 6.48251,-0.62019 5.17302,-0.0696 5.82674,-0.0291 6.66189,0.41455 1.42608,0.7575 2.23124,2.5973 2.7701,6.32774 2.43137,16.83208 4.23807,23.14555 8.54053,29.847 4.98112,7.75853 11.76396,11.24178 24.54035,12.60188 4.11079,0.43763 26.19823,0.42071 30.69143,-0.0235 10.91226,-1.07886 17.43309,-4.1753 22.23513,-10.55862 4.88975,-6.49991 6.77399,-12.81865 8.84625,-29.66817 0.90272,-7.34 1.15338,-8.63083 2.01153,-10.34423 0.73483,-1.46719 1.52039,-2.02121 3.35528,-2.36757 3.26246,-0.61582 3.25302,-0.59233 3.19012,-8.11886 -0.0533,-6.37207 -0.18598,-7.07273 -1.45696,-7.68189 -0.38927,-0.18657 -2.47193,-0.51466 -4.62795,-0.72903 -2.15602,-0.21438 -5.52702,-0.57565 -7.49155,-0.80231 -1.96453,-0.22665 -5.64559,-0.55425 -8.18012,-0.72848 -3.09249,-0.21258 -13.74952,-1.01371 -19.139,-1.46235 -4.52232,-0.37646 -22.50974,-0.6437 -27.47218,-0.40457 -5.25307,0.25313 -10.44989,0.28987 -16.01935,1.26066 -7.10158,1.23785 -8.662,2.0519 -11.01184,3.22599 -1.46418,0.73157 -2.49218,1.54166 -4.34137,3.42092 -1.33264,1.35431 -2.75588,2.68048 -3.16277,2.94729 -0.67455,0.44232 -2.08826,0.48976 -9.93993,0.53816 -4.73614,0.0292 -8.28329,0.17458 -8.72552,-0.169 -0.53815,-0.4181 -1.36756,-1.13725 -3.1424,-3.25712 -2.14161,-2.55795 -1.97265,-2.10774 -5.2613,-4.08594 -2.8105,-1.69058 -6.11564,-2.05969 -14.110498,-3.18022 -7.111582,-0.99672 -18.322458,-1.3844 -24.247458,-1.31329 -7.204382,0.0865 -12.840683,0.19203 -21.190483,1.02316 -9.155509,0.91133 -9.747057,1.13537 -15.105822,1.56676 z m 151.627201,5.37612 c 16.51387,0.29431 24.40814,1.1735 28.44091,3.1666 3.48672,1.72323 5.99386,5.00226 7.2006,9.41886 0.63449,2.3222 0.62574,10.48574 -0.017,15.87513 -1.15881,9.71731 -2.05136,13.3713 -4.45949,18.25636 -1.46109,2.96395 -1.86553,3.54128 -3.89618,5.56261 -3.40204,3.38643 -6.05267,4.48629 -13.11378,5.44065 -3.723,0.50319 -26.7568,0.76631 -30.53119,0.34893 -7.96224,-0.88047 -13.63341,-3.16076 -17.10676,-6.87957 -4.11042,-4.40089 -6.32968,-9.94681 -7.78744,-19.45792 -1.55557,-10.14929 -1.07591,-18.04013 1.37767,-22.66554 1.00531,-1.89516 3.23961,-4.24028 5.05179,-5.30229 5.00232,-2.93156 15.84196,-4.10241 34.84083,-3.76382 z m -110.271046,0.35932 c 7.451298,0.18614 14.358122,0.6263 17.960488,1.25132 8.495998,1.47408 12.534368,4.76286 14.449328,11.76839 0.6486,2.37263 0.63487,10.70826 -0.0252,15.21391 -1.18567,8.09416 -3.02535,14.85421 -4.96156,18.23285 -4.792877,8.36342 -10.11306,10.54897 -27.4417,11.27179 v -5.5e-4 c -6.571312,0.27416 -9.353838,0.2722 -16.716817,-0.012 -5.254251,-0.20283 -5.956005,-0.27953 -9.709274,-1.06592 -7.233239,-1.51552 -11.242656,-4.58593 -14.244788,-10.90756 -2.980478,-6.27604 -5.367438,-26.5076 -3.941573,-33.41066 1.739651,-8.42219 6.611412,-10.93434 23.403872,-12.06918 5.780285,-0.39063 13.775877,-0.45851 21.227174,-0.27236 z"
         sodipodi:nodetypes="sssssccssssssssssssssssssssssssssssssssssssssssssssssssssssssssccsssssssss" /><path
         d="m 126.45741,181.24837 c 2.01521,-0.0233 1.54298,-0.0782 2.18162,0.41455 1.42608,0.7575 2.23124,2.59729 2.7701,6.32774 2.43137,16.83207 4.23807,23.14554 8.54053,29.84699 4.98112,7.75852 11.76396,11.24177 24.54034,12.60188 4.11079,0.43763 26.19822,0.42071 30.69143,-0.0235 10.91227,-1.07886 17.43309,-4.1753 22.23513,-10.55862 4.88975,-6.49991 6.77399,-12.81865 8.84625,-29.66816 0.90273,-7.34 1.15338,-8.63083 2.01153,-10.34422 0.73483,-1.46719 1.52039,-2.02121 3.35529,-2.36756 3.26245,-0.61582 3.25302,-0.59233 3.19011,-8.11888 -0.0533,-6.37207 -0.18598,-7.07273 -1.45695,-7.68189 -0.38928,-0.18657 -2.47194,-0.51466 -4.62796,-0.72903 -2.15601,-0.21438 -5.52702,-0.57565 -7.49155,-0.80231 -1.96453,-0.22665 -5.64559,-0.55425 -8.18012,-0.72848 -3.09249,-0.21258 -13.74952,-1.01371 -19.139,-1.46235 -4.52232,-0.37646 -22.50974,-0.6437 -27.47218,-0.40457 -5.25306,0.25313 -10.44988,0.28987 -16.01934,1.26066 -7.10158,1.23785 -8.662,2.0519 -11.01184,3.22599 -1.46418,0.73157 -2.49218,1.54166 -4.34137,3.42092 -1.33264,1.35431 -2.6224,2.59245 -3.16277,2.94729 -0.65723,0.43157 -0.17117,0.43636 -5.45965,0.53816 -4.73535,0.0911 -5.2968,12.36644 4e-4,12.30539 z m 55.36303,-16.34492 c 16.5165,0 24.40814,1.1735 28.44091,3.1666 3.48672,1.72323 5.99386,5.00228 7.2006,9.41888 0.63449,2.32219 0.62574,10.48572 -0.017,15.8751 -1.15881,9.71731 -2.05136,13.3713 -4.4595,18.25635 -1.46108,2.96395 -1.86552,3.54128 -3.89618,5.56261 -3.40203,3.38644 -6.05266,4.4863 -13.11378,5.44065 -3.72299,0.5032 -26.7568,0.76632 -30.53118,0.34894 -7.96223,-0.88047 -13.6334,-3.16076 -17.10675,-6.87957 -4.11042,-4.40089 -6.32968,-9.94681 -7.78745,-19.45793 -1.55557,-10.14928 -1.07591,-18.0401 1.37768,-22.6655 1.00531,-1.89516 3.23961,-4.2403 5.05178,-5.30232 5.00233,-2.93156 15.83895,-3.76381 34.84082,-3.76381 z"
         style="display:inline;fill:#152326;stroke-width:1"
         id="path1-2"
         sodipodi:nodetypes="scssscsssscsssssssssssssssscsssssssss"
         inkscape:label="frame bottom right" /><path
         d="m 129.5426,181.17245 c -2.01521,-0.0233 -1.54298,-0.0782 -2.18162,0.41455 -1.42608,0.7575 -2.23124,2.59729 -2.7701,6.32774 -2.43137,16.83207 -4.23807,23.14554 -8.54053,29.84699 -4.98112,7.75852 -11.76396,11.24177 -24.540345,12.60188 -4.11079,0.43763 -26.19822,0.42071 -30.69143,-0.0235 -10.91227,-1.07886 -17.43309,-4.1753 -22.23513,-10.55862 -4.88975,-6.49991 -6.77399,-12.81865 -8.84625,-29.66816 -0.90273,-7.34 -1.15338,-8.63083 -2.01153,-10.34422 -0.73483,-1.46719 -1.52039,-2.02121 -3.35529,-2.36756 -3.26245,-0.61582 -3.25302,-0.59233 -3.19011,-8.11888 0.0533,-6.37207 0.18598,-7.07273 1.45695,-7.68189 0.38928,-0.18657 2.47194,-0.51466 4.62796,-0.72903 2.15601,-0.21438 5.52702,-0.57565 7.49155,-0.80231 1.96453,-0.22665 5.64559,-0.55425 8.18012,-0.72848 3.09249,-0.21258 13.74952,-1.01371 19.139,-1.46235 4.52232,-0.37646 22.50974,-0.6437 27.47218,-0.40457 5.25306,0.25313 10.449884,0.28987 16.019345,1.26066 7.10158,1.23785 8.662,2.0519 11.01184,3.22599 1.46418,0.73157 2.49218,1.54166 4.34137,3.42092 1.33264,1.35431 2.6224,2.59245 3.16277,2.94729 0.65723,0.43157 0.17117,0.43636 5.45965,0.53816 4.73535,0.0911 5.2968,12.36644 -4e-4,12.30539 z M 74.179565,164.82753 c -16.5165,0 -24.40814,1.1735 -28.44091,3.1666 -3.48672,1.72323 -5.99386,5.00228 -7.2006,9.41888 -0.63449,2.32219 -0.62574,10.48572 0.017,15.8751 1.15881,9.71731 2.05136,13.3713 4.4595,18.25635 1.46108,2.96395 1.86552,3.54128 3.89618,5.56261 3.40203,3.38644 6.05266,4.4863 13.11378,5.44065 3.72299,0.5032 26.7568,0.76632 30.53118,0.34894 7.962232,-0.88047 13.633405,-3.16076 17.106755,-6.87957 4.11042,-4.40089 6.32968,-9.94681 7.78745,-19.45793 1.55557,-10.14928 1.07591,-18.0401 -1.37768,-22.6655 -1.00531,-1.89516 -3.23961,-4.2403 -5.05178,-5.30232 -5.00233,-2.93156 -15.838955,-3.76381 -34.840825,-3.76381 z"
         style="display:inline;fill:#152326;stroke-width:1"
         id="path1"
         sodipodi:nodetypes="scssscsssscsssssssssssssssscsssssssss"
         inkscape:label="frame bottom left" /><path
         d="m 126.45741,115.36666 c 2.01521,-0.0233 1.54298,-0.0782 2.18162,0.41455 1.42608,0.7575 2.23124,2.59729 2.7701,6.32774 2.43137,16.83207 4.23807,23.14554 8.54053,29.84699 4.98112,7.75852 11.76396,11.24177 24.54034,12.60188 4.11079,0.43763 26.19822,0.42071 30.69143,-0.0235 10.91227,-1.07886 17.43309,-4.1753 22.23513,-10.55862 4.88975,-6.49991 6.77399,-12.81865 8.84625,-29.66816 0.90273,-7.34 1.15338,-8.63083 2.01153,-10.34422 0.73483,-1.46719 1.52039,-2.02121 3.35529,-2.36756 3.26245,-0.61582 3.25302,-0.59233 3.19011,-8.11888 -0.0533,-6.372068 -0.18598,-7.072728 -1.45695,-7.681888 -0.38928,-0.18657 -2.47194,-0.51466 -4.62796,-0.72903 -2.15601,-0.21438 -5.52702,-0.57565 -7.49155,-0.80231 -1.96453,-0.22665 -5.64559,-0.55425 -8.18012,-0.72848 -3.09249,-0.21258 -13.74952,-1.01371 -19.139,-1.46235 -4.52232,-0.37646 -22.50974,-0.6437 -27.47218,-0.40457 -5.25306,0.25313 -10.44988,0.28987 -16.01934,1.26066 -7.10158,1.23785 -8.662,2.0519 -11.01184,3.22599 -1.46418,0.73157 -2.49218,1.54166 -4.34137,3.42092 -1.33264,1.354308 -2.6224,2.592448 -3.16277,2.947288 -0.65723,0.43157 -0.17117,0.43636 -5.45965,0.53816 -4.73535,0.0911 -5.2968,12.36644 4e-4,12.30539 z m 55.36303,-16.344918 c 16.5165,0 24.40814,1.173498 28.44091,3.166598 3.48672,1.72323 5.99386,5.00228 7.2006,9.41888 0.63449,2.32219 0.62574,10.48572 -0.017,15.8751 -1.15881,9.71731 -2.05136,13.3713 -4.4595,18.25635 -1.46108,2.96395 -1.86552,3.54128 -3.89618,5.56261 -3.40203,3.38644 -6.05266,4.4863 -13.11378,5.44065 -3.72299,0.5032 -26.7568,0.76632 -30.53118,0.34894 -7.96223,-0.88047 -13.6334,-3.16076 -17.10675,-6.87957 -4.11042,-4.40089 -6.32968,-9.94681 -7.78745,-19.45793 -1.55557,-10.14928 -1.07591,-18.0401 1.37768,-22.6655 1.00531,-1.89516 3.23961,-4.2403 5.05178,-5.30232 5.00233,-2.931558 15.83895,-3.763808 34.84082,-3.763808 z"
         style="display:inline;fill:#152326;stroke-width:1"
         id="path1-7-5"
         sodipodi:nodetypes="scssscsssscsssssssssssssssscsssssssss"
         inkscape:label="frame mid right" /><path
         d="m 129.5426,115.29074 c -2.01521,-0.0233 -1.54298,-0.0782 -2.18162,0.41455 -1.42608,0.7575 -2.23124,2.59729 -2.7701,6.32774 -2.43137,16.83207 -4.23807,23.14554 -8.54053,29.84699 -4.98112,7.75852 -11.76396,11.24177 -24.540345,12.60188 -4.11079,0.43763 -26.19822,0.42071 -30.69143,-0.0235 -10.91227,-1.07886 -17.43309,-4.1753 -22.23513,-10.55862 -4.88975,-6.49991 -6.77399,-12.81865 -8.84625,-29.66816 -0.90273,-7.34 -1.15338,-8.63083 -2.01153,-10.34422 -0.73483,-1.46719 -1.52039,-2.02121 -3.35529,-2.36756 -3.26245,-0.61582 -3.25302,-0.59233 -3.19011,-8.11888 0.0533,-6.372073 0.18598,-7.072733 1.45695,-7.681893 0.38928,-0.18657 2.47194,-0.51466 4.62796,-0.72903 2.15601,-0.21438 5.52702,-0.57565 7.49155,-0.80231 1.96453,-0.22665 5.64559,-0.55425 8.18012,-0.72848 3.09249,-0.21258 13.74952,-1.01371 19.139,-1.46235 4.52232,-0.37646 22.50974,-0.6437 27.47218,-0.40457 5.25306,0.25313 10.44988,0.28987 16.019345,1.26066 7.10158,1.23785 8.662,2.0519 11.01184,3.22599 1.46418,0.73157 2.49218,1.54166 4.34137,3.42092 1.33264,1.354313 2.6224,2.592453 3.16277,2.947293 0.65723,0.43157 0.17117,0.43636 5.45965,0.53816 4.73535,0.0911 5.2968,12.36644 -4e-4,12.30539 z M 74.179565,98.945817 c -16.5165,0 -24.40814,1.173503 -28.44091,3.166603 -3.48672,1.72323 -5.99386,5.00228 -7.2006,9.41888 -0.63449,2.32219 -0.62574,10.48572 0.017,15.8751 1.15881,9.71731 2.05136,13.3713 4.4595,18.25635 1.46108,2.96395 1.86552,3.54128 3.89618,5.56261 3.40203,3.38644 6.05266,4.4863 13.11378,5.44065 3.72299,0.5032 26.7568,0.76632 30.53118,0.34894 7.96223,-0.88047 13.633405,-3.16076 17.106755,-6.87957 4.11042,-4.40089 6.32968,-9.94681 7.78745,-19.45793 1.55557,-10.14928 1.07591,-18.0401 -1.37768,-22.6655 -1.00531,-1.89516 -3.23961,-4.2403 -5.05178,-5.30232 -5.00233,-2.931563 -15.838955,-3.763813 -34.840825,-3.763813 z"
         style="display:inline;fill:#152326;stroke-width:1"
         id="path1-7"
         sodipodi:nodetypes="scssscsssscsssssssssssssssscsssssssss"
         inkscape:label="frame mid left" /><path
         d="m 126.45741,49.106522 c 2.01521,-0.0233 1.54298,-0.0782 2.18162,0.41455 1.42608,0.7575 2.23124,2.59729 2.7701,6.32774 2.43137,16.83207 4.23807,23.14554 8.54053,29.84699 4.98112,7.75852 11.76396,11.24177 24.54034,12.60188 4.11079,0.43763 26.19822,0.42071 30.69143,-0.0235 10.91227,-1.07886 17.43309,-4.1753 22.23513,-10.55862 4.88975,-6.49991 6.77399,-12.81865 8.84625,-29.66816 0.90273,-7.34 1.15338,-8.63083 2.01153,-10.34422 0.73483,-1.46719 1.52039,-2.02121 3.35529,-2.36756 3.26245,-0.61582 3.25302,-0.59233 3.19011,-8.11888 -0.0533,-6.37207 -0.18598,-7.07273 -1.45695,-7.68189 -0.38928,-0.18657 -2.47194,-0.51466 -4.62796,-0.72903 -2.15601,-0.21438 -5.52702,-0.57565 -7.49155,-0.80231 -1.96453,-0.22665 -5.64559,-0.55425 -8.18012,-0.72848 -3.09249,-0.21258 -13.74952,-1.01371 -19.139,-1.46235 -4.52232,-0.37646 -22.50974,-0.6437 -27.47218,-0.40457 -5.25306,0.25313 -10.44988,0.28987 -16.01934,1.26066 -7.10158,1.23785 -8.662,2.0519 -11.01184,3.22599 -1.46418,0.73157 -2.49218,1.54166 -4.34137,3.42092 -1.33264,1.35431 -2.6224,2.59245 -3.16277,2.94729 -0.65723,0.43157 -0.17117,0.43636 -5.45965,0.53816 -4.73535,0.0911 -5.2968,12.36644 4e-4,12.30539 z m 55.36303,-16.34492 c 16.5165,0 24.40814,1.1735 28.44091,3.1666 3.48672,1.72323 5.99386,5.00228 7.2006,9.41888 0.63449,2.32219 0.62574,10.48572 -0.017,15.8751 -1.15881,9.71731 -2.05136,13.3713 -4.4595,18.25635 -1.46108,2.96395 -1.86552,3.54128 -3.89618,5.56261 -3.40203,3.38644 -6.05266,4.4863 -13.11378,5.44065 -3.72299,0.5032 -26.7568,0.76632 -30.53118,0.34894 -7.96223,-0.88047 -13.6334,-3.16076 -17.10675,-6.87957 -4.11042,-4.40089 -6.32968,-9.94681 -7.78745,-19.45793 -1.55557,-10.14928 -1.07591,-18.0401 1.37768,-22.6655 1.00531,-1.89516 3.23961,-4.2403 5.05178,-5.30232 5.00233,-2.93156 15.83895,-3.76381 34.84082,-3.76381 z"
         style="display:inline;fill:#152326;stroke-width:1"
         id="path1-4-8"
         sodipodi:nodetypes="scssscsssscsssssssssssssssscsssssssss"
         inkscape:label="frame top right" /><path
         d="m 129.5426,49.030597 c -2.01521,-0.0233 -1.54298,-0.0782 -2.18162,0.41455 -1.42608,0.7575 -2.23124,2.59729 -2.7701,6.32774 -2.43137,16.83207 -4.23807,23.14554 -8.54053,29.84699 -4.98112,7.75852 -11.76396,11.24177 -24.540345,12.60188 -4.11079,0.43763 -26.19822,0.42071 -30.69143,-0.0235 -10.91227,-1.07886 -17.43309,-4.1753 -22.23513,-10.55862 -4.88975,-6.49991 -6.77399,-12.81865 -8.84625,-29.66816 -0.90273,-7.34 -1.15338,-8.63083 -2.01153,-10.34422 -0.73483,-1.46719 -1.52039,-2.02121 -3.35529,-2.36756 -3.26245,-0.61582 -3.25302,-0.59233 -3.19011,-8.11888 0.0533,-6.37207 0.18598,-7.07273 1.45695,-7.68189 0.38928,-0.18657 2.47194,-0.51466 4.62796,-0.72903 2.15601,-0.21438 5.52702,-0.575651 7.49155,-0.802311 1.96453,-0.22665 5.64559,-0.55425 8.18012,-0.72848 3.09249,-0.21258 13.74952,-1.013711 19.139,-1.462351 4.52232,-0.37646 22.50974,-0.6437 27.47218,-0.40457 5.25306,0.25313 10.449884,0.28987 16.019345,1.260661 7.10158,1.23785 8.662,2.051901 11.01184,3.225991 1.46418,0.73157 2.49218,1.54166 4.34137,3.42092 1.33264,1.35431 2.6224,2.59245 3.16277,2.94729 0.65723,0.43157 0.17117,0.43636 5.45965,0.53816 4.73535,0.0911 5.2968,12.36644 -4e-4,12.30539 z M 74.179565,32.685677 c -16.5165,0 -24.40814,1.1735 -28.44091,3.1666 -3.48672,1.72323 -5.99386,5.00228 -7.2006,9.41888 -0.63449,2.32219 -0.62574,10.48572 0.017,15.8751 1.15881,9.71731 2.05136,13.3713 4.4595,18.25635 1.46108,2.96395 1.86552,3.54128 3.89618,5.56261 3.40203,3.38644 6.05266,4.4863 13.11378,5.44065 3.72299,0.5032 26.7568,0.76632 30.53118,0.34894 7.962234,-0.88047 13.633405,-3.16076 17.106755,-6.87957 4.11042,-4.40089 6.32968,-9.94681 7.78745,-19.45793 1.55557,-10.14928 1.07591,-18.0401 -1.37768,-22.6655 -1.00531,-1.89516 -3.23961,-4.2403 -5.05178,-5.30232 -5.00233,-2.93156 -15.838955,-3.76381 -34.840825,-3.76381 z"
         style="display:inline;fill:#152326;stroke-width:1"
         id="path1-4"
         sodipodi:nodetypes="scssscsssscsssssssssssssssscsssssssss"
         inkscape:label="frame top left" /></g></g></svg>
